<?xml version="1.0" encoding="UTF-8"?>
<!--Generator: Apple Native CoreSVG 175-->
<!DOCTYPE svg
PUBLIC "-//W3C//DTD SVG 1.1//EN"
       "http://www.w3.org/Graphics/SVG/1.1/DTD/svg11.dtd">
<svg version="1.1" xmlns="http://www.w3.org/2000/svg" xmlns:xlink="http://www.w3.org/1999/xlink" width="11.8555" height="14.4434">
 <g>
  <rect height="14.4434" opacity="0" width="11.8555" x="0" y="0"/>
  <path d="M0.820312 14.4238Q1.21094 14.4238 1.42578 14.2578Q1.64062 14.0918 1.77734 13.6816L3.03711 10.2344L8.79883 10.2344L10.0586 13.6816Q10.1953 14.0918 10.4102 14.2578Q10.625 14.4238 11.0059 14.4238Q11.3965 14.4238 11.626 14.209Q11.8555 13.9941 11.8555 13.623Q11.8555 13.3984 11.748 13.0957L7.16797 0.898438Q6.99219 0.449219 6.68945 0.224609Q6.38672 0 5.91797 0Q5.00977 0 4.6875 0.888672L0.107422 13.1055Q0 13.4082 0 13.6328Q0 14.0039 0.219727 14.2139Q0.439453 14.4238 0.820312 14.4238ZM3.51562 8.75L5.88867 2.17773L5.9375 2.17773L8.31055 8.75Z" fill="rgba(0,0,0,0.85)"/>
 </g>
</svg>
