<?xml version="1.0" encoding="UTF-8"?>
<!--Generator: Apple Native CoreSVG 175-->
<!DOCTYPE svg
PUBLIC "-//W3C//DTD SVG 1.1//EN"
       "http://www.w3.org/Graphics/SVG/1.1/DTD/svg11.dtd">
<svg version="1.1" xmlns="http://www.w3.org/2000/svg" xmlns:xlink="http://www.w3.org/1999/xlink" width="18.8429" height="23.0762">
 <g>
  <rect height="23.0762" opacity="0" width="18.8429" x="0" y="0"/>
  <path d="M0.292969 5.20508Q0 5.48828 0 5.86426Q0 6.24023 0.292969 6.51367L5.32227 11.4355Q5.60547 11.7188 5.9668 11.7188Q6.35742 11.7188 6.59668 11.4746Q6.83594 11.2305 6.83594 10.8496Q6.83594 10.498 6.58203 10.2441L4.48242 8.21289L2.66602 6.64062L4.92188 6.73828L17.9688 6.73828Q18.3496 6.73828 18.5938 6.48926Q18.8379 6.24023 18.8379 5.85938Q18.8379 5.47852 18.5938 5.23438Q18.3496 4.99023 17.9688 4.99023L4.92188 4.99023L2.66602 5.07812L4.48242 3.51562L6.58203 1.47461Q6.83594 1.23047 6.83594 0.869141Q6.83594 0.488281 6.59668 0.249023Q6.35742 0.00976562 5.9668 0.00976562Q5.60547 0.00976562 5.32227 0.283203ZM18.5547 17.8809Q18.8477 17.5977 18.8428 17.2168Q18.8379 16.8359 18.5547 16.5625L13.5254 11.6406Q13.2422 11.3672 12.8711 11.3672Q12.4902 11.3672 12.251 11.6064Q12.0117 11.8457 12.0117 12.2266Q12.0117 12.5879 12.2559 12.832L14.3652 14.873L16.1816 16.4453L13.9258 16.3477L0.878906 16.3477Q0.498047 16.3477 0.249023 16.5918Q0 16.8359 0 17.2168Q0 17.6074 0.249023 17.8516Q0.498047 18.0957 0.878906 18.0957L13.9258 18.0957L16.1816 17.998L14.3652 19.5703L12.2559 21.6016Q12.0117 21.8555 12.0117 22.2168Q12.0117 22.5977 12.251 22.8369Q12.4902 23.0762 12.8711 23.0762Q13.2422 23.0762 13.5254 22.8027Z" fill="rgba(0,0,0,0.85)"/>
 </g>
</svg>
