<?xml version="1.0" encoding="UTF-8"?>
<!--Generator: Apple Native CoreSVG 175-->
<!DOCTYPE svg
PUBLIC "-//W3C//DTD SVG 1.1//EN"
       "http://www.w3.org/Graphics/SVG/1.1/DTD/svg11.dtd">
<svg version="1.1" xmlns="http://www.w3.org/2000/svg" xmlns:xlink="http://www.w3.org/1999/xlink" width="16.8262" height="17.2363">
 <g>
  <rect height="17.2363" opacity="0" width="16.8262" x="0" y="0"/>
  <path d="M6.36719 17.2363Q6.99219 17.2363 7.35352 16.6895L16.582 2.1582Q16.709 1.95312 16.7676 1.78223Q16.8262 1.61133 16.8262 1.43555Q16.8262 1.03516 16.582 0.791016Q16.3379 0.546875 15.9375 0.546875Q15.6445 0.546875 15.459 0.65918Q15.2734 0.771484 15.0977 1.04492L6.32812 15.0195L1.77734 9.0625Q1.42578 8.58398 0.9375 8.58398Q0.527344 8.58398 0.263672 8.84277Q0 9.10156 0 9.50195Q0 9.67773 0.0683594 9.8584Q0.136719 10.0391 0.283203 10.2148L5.35156 16.6699Q5.79102 17.2363 6.36719 17.2363Z" fill="rgba(0,0,0,0.85)"/>
 </g>
</svg>
