<?xml version="1.0" encoding="UTF-8"?>
<!--Generator: Apple Native CoreSVG 175-->
<!DOCTYPE svg
PUBLIC "-//W3C//DTD SVG 1.1//EN"
       "http://www.w3.org/Graphics/SVG/1.1/DTD/svg11.dtd">
<svg version="1.1" xmlns="http://www.w3.org/2000/svg" xmlns:xlink="http://www.w3.org/1999/xlink" width="17.0752" height="19.0776">
 <g>
  <rect height="19.0776" opacity="0" width="17.0752" x="0" y="0"/>
  <path d="M12.518 18.5769Q14.4516 17.8738 15.6088 16.5115Q16.766 15.1492 17.015 13.3084Q17.2641 11.4675 16.4828 9.3191L15.7602 7.31714Q15.1742 5.73511 14.1391 5.10523Q13.1039 4.47535 11.8246 4.92457Q11.4828 4.47535 10.975 4.33375Q10.4672 4.19214 9.90078 4.39722Q9.50039 4.54371 9.13906 4.82691Q8.76797 4.33863 8.21621 4.1775Q7.66445 4.01636 7.06875 4.23121Q6.73672 4.35816 6.45351 4.56324L5.34023 1.51636Q5.02773 0.637456 4.31484 0.300542Q3.60195-0.0363717 2.78164 0.256597Q1.96133 0.559331 1.63418 1.2771Q1.30703 1.99488 1.61953 2.86402L4.40273 10.5203Q4.43203 10.6082 4.36367 10.6277Q4.31484 10.6472 4.26601 10.5984L3.12343 9.34839Q2.69375 8.89918 2.20547 8.75757Q1.71718 8.61597 1.21914 8.79175Q0.555075 9.03589 0.19863 9.6316Q-0.157815 10.2273 0.125388 10.9793Q0.193747 11.1941 0.330466 11.4334Q0.467185 11.6726 0.6332 11.8875L3.90468 15.8425Q5.76015 18.0886 7.92324 18.7771Q10.0863 19.4656 12.518 18.5769ZM12.098 17.2976Q10.1742 18.0007 8.37734 17.5418Q6.58047 17.0828 4.88125 15.032L1.60976 11.0964Q1.45351 10.9109 1.38515 10.7058Q1.29726 10.4714 1.39492 10.2371Q1.49258 10.0027 1.77578 9.89527Q2.1957 9.74878 2.58633 10.1687L4.85195 12.5027Q5.12539 12.7957 5.37929 12.8494Q5.6332 12.9031 5.87734 12.8152Q6.17031 12.7078 6.27773 12.4392Q6.38515 12.1707 6.26797 11.8484L2.81093 2.33668Q2.70351 2.04371 2.81582 1.79468Q2.92812 1.54566 3.21133 1.43824Q3.50429 1.34058 3.74355 1.46265Q3.98281 1.58472 4.09023 1.87769L6.56093 8.6648Q6.64883 8.90894 6.8832 9.0066Q7.11758 9.10425 7.36172 9.01636Q7.59609 8.92847 7.70351 8.70386Q7.81093 8.47925 7.73281 8.24488L6.83437 5.79371Q7.04922 5.57886 7.34218 5.47144Q7.68398 5.34449 7.95742 5.48609Q8.23086 5.62769 8.35781 5.98902L9.13906 8.12769Q9.22695 8.37183 9.46133 8.4646Q9.6957 8.55738 9.93008 8.46949Q10.1547 8.39136 10.2719 8.17164Q10.3891 7.95191 10.3012 7.698L9.6664 5.95972Q9.88125 5.74488 10.1742 5.63746Q10.516 5.5105 10.7895 5.6521Q11.0629 5.79371 11.1898 6.15503L11.7074 7.58082Q11.8051 7.83472 12.0395 7.9275Q12.2738 8.02027 12.5082 7.93238Q12.7328 7.85425 12.85 7.63453Q12.9672 7.4148 12.8793 7.16089L12.4887 6.10621Q13.1039 5.8816 13.6605 6.365Q14.2172 6.84839 14.6078 7.94214L15.223 9.61207Q15.8871 11.4578 15.7309 12.9812Q15.5746 14.5046 14.6469 15.6082Q13.7191 16.7117 12.098 17.2976Z" fill="rgba(0,0,0,0.85)"/>
 </g>
</svg>
