<?xml version="1.0" encoding="UTF-8"?>
<!--Generator: Apple Native CoreSVG 175-->
<!DOCTYPE svg
PUBLIC "-//W3C//DTD SVG 1.1//EN"
       "http://www.w3.org/Graphics/SVG/1.1/DTD/svg11.dtd">
<svg version="1.1" xmlns="http://www.w3.org/2000/svg" xmlns:xlink="http://www.w3.org/1999/xlink" width="23.8839" height="19.9316">
 <g>
  <rect height="19.9316" opacity="0" width="23.8839" x="0" y="0"/>
  <path d="M0.195545 9.99023Q-0.0876581 10.3906 0.039295 10.6982Q0.166248 11.0059 0.693592 11.0059L2.04125 11.0059Q2.24633 12.8711 3.09105 14.4922Q3.93578 16.1133 5.28344 17.334Q6.63109 18.5547 8.33031 19.2383Q10.0295 19.9219 11.9436 19.9219Q14.1799 19.9219 16.1282 18.9795Q18.0764 18.0371 19.4534 16.4551Q19.7268 16.1426 19.6975 15.791Q19.6682 15.4395 19.385 15.2344Q19.1018 15.0293 18.7795 15.0879Q18.4573 15.1465 18.2229 15.4199Q17.0901 16.7285 15.4641 17.4951Q13.8381 18.2617 11.9436 18.2617Q10.3518 18.2617 8.94066 17.7148Q7.52953 17.168 6.42601 16.1768Q5.3225 15.1855 4.61449 13.8672Q3.90648 12.5488 3.72094 11.0059L5.17601 11.0059Q5.69359 11.0059 5.82543 10.7031Q5.95726 10.4004 5.67406 10L3.48656 6.88477Q3.25219 6.55273 2.93969 6.54785Q2.62719 6.54297 2.38305 6.88477ZM4.44359 3.4668Q4.16039 3.7793 4.18969 4.12598Q4.21898 4.47266 4.51195 4.67773Q4.79515 4.88281 5.11742 4.8291Q5.43969 4.77539 5.67406 4.50195Q6.81664 3.19336 8.44262 2.42676Q10.0686 1.66016 11.9436 1.66016Q13.5354 1.66016 14.9465 2.21191Q16.3577 2.76367 17.4612 3.75488Q18.5647 4.74609 19.2678 6.06445Q19.9709 7.38281 20.1662 8.92578L18.7112 8.92578Q18.1936 8.92578 18.0618 9.22852Q17.9299 9.53125 18.2131 9.93164L20.4006 13.0469Q20.635 13.3789 20.9475 13.3838Q21.26 13.3887 21.5041 13.0469L23.6819 9.94141Q23.9748 9.53125 23.843 9.22852Q23.7112 8.92578 23.1838 8.92578L21.8459 8.92578Q21.6409 7.06055 20.7961 5.43945Q19.9514 3.81836 18.6037 2.59766Q17.2561 1.37695 15.552 0.688477Q13.8479 0 11.9436 0Q9.71703 0 7.76879 0.942383Q5.82055 1.88477 4.44359 3.4668Z" fill="rgba(0,0,0,0.85)"/>
 </g>
</svg>
