<?xml version="1.0" encoding="UTF-8"?>
<!--Generator: Apple Native CoreSVG 175-->
<!DOCTYPE svg
PUBLIC "-//W3C//DTD SVG 1.1//EN"
       "http://www.w3.org/Graphics/SVG/1.1/DTD/svg11.dtd">
<svg version="1.1" xmlns="http://www.w3.org/2000/svg" xmlns:xlink="http://www.w3.org/1999/xlink" width="15.166" height="23.3691">
 <g>
  <rect height="23.3691" opacity="0" width="15.166" x="0" y="0"/>
  <path d="M0 14.6973Q0 15.3223 0.390625 15.6982Q0.78125 16.0742 1.43555 16.0742L6.71875 16.0742L6.71875 20.6348Q6.71875 21.1914 6.81641 21.6895Q6.91406 22.1875 7.06055 22.5635Q7.20703 22.9395 7.34863 23.1543Q7.49023 23.3691 7.58789 23.3691Q7.67578 23.3691 7.81738 23.1543Q7.95898 22.9395 8.10547 22.5635Q8.25195 22.1875 8.34961 21.6895Q8.44727 21.1914 8.44727 20.6348L8.44727 16.0742L13.7305 16.0742Q14.3945 16.0742 14.7803 15.6982Q15.166 15.3223 15.166 14.6973Q15.166 13.6621 14.6387 12.6514Q14.1113 11.6406 13.125 10.8008Q12.1387 9.96094 10.7715 9.46289L10.4492 4.98047Q11.1621 4.57031 11.7725 4.15039Q12.3828 3.73047 12.8418 3.33008Q13.3008 2.92969 13.5547 2.59766Q13.9355 2.10938 13.9355 1.64062Q13.9355 1.19141 13.6182 0.898438Q13.3008 0.605469 12.793 0.605469L2.38281 0.605469Q1.86523 0.605469 1.55273 0.898438Q1.24023 1.19141 1.24023 1.64062Q1.24023 2.10938 1.61133 2.59766Q1.86523 2.92969 2.32422 3.33008Q2.7832 3.73047 3.39355 4.15527Q4.00391 4.58008 4.7168 4.98047L4.39453 9.46289Q3.02734 9.96094 2.04102 10.8008Q1.05469 11.6406 0.527344 12.6514Q0 13.6621 0 14.6973Z" fill="rgba(0,0,0,0.85)"/>
 </g>
</svg>
