<?xml version="1.0" encoding="UTF-8"?>
<!--Generator: Apple Native CoreSVG 175-->
<!DOCTYPE svg
PUBLIC "-//W3C//DTD SVG 1.1//EN"
       "http://www.w3.org/Graphics/SVG/1.1/DTD/svg11.dtd">
<svg version="1.1" xmlns="http://www.w3.org/2000/svg" xmlns:xlink="http://www.w3.org/1999/xlink" width="8.7207" height="10.3809">
 <g>
  <rect height="10.3809" opacity="0" width="8.7207" x="0" y="0"/>
  <path d="M0.810547 10.3809Q1.11328 10.3809 1.31348 10.2197Q1.51367 10.0586 1.63086 9.69727L2.44141 7.30469L6.25977 7.30469L7.07031 9.69727Q7.1875 10.0684 7.39258 10.2246Q7.59766 10.3809 7.90039 10.3809Q8.27148 10.3809 8.49609 10.1758Q8.7207 9.9707 8.7207 9.63867Q8.7207 9.49219 8.68652 9.35059Q8.65234 9.20898 8.59375 9.05273L5.55664 0.986328Q5.39062 0.537109 5.08301 0.307617Q4.77539 0.078125 4.3457 0.078125Q3.92578 0.078125 3.62305 0.297852Q3.32031 0.517578 3.14453 0.986328L0.107422 9.05273Q0.0488281 9.18945 0.0244141 9.34082Q0 9.49219 0 9.63867Q0 9.98047 0.219727 10.1807Q0.439453 10.3809 0.810547 10.3809ZM2.87109 6.03516L4.23828 1.96289L4.46289 1.96289L5.83008 6.03516Z" fill="rgba(0,0,0,0.85)"/>
 </g>
</svg>
