<?xml version="1.0" encoding="UTF-8"?>
<!--Generator: Apple Native CoreSVG 175-->
<!DOCTYPE svg
PUBLIC "-//W3C//DTD SVG 1.1//EN"
       "http://www.w3.org/Graphics/SVG/1.1/DTD/svg11.dtd">
<svg version="1.1" xmlns="http://www.w3.org/2000/svg" xmlns:xlink="http://www.w3.org/1999/xlink" width="19.9219" height="19.9316">
 <g>
  <rect height="19.9316" opacity="0" width="19.9219" x="0" y="0"/>
  <path d="M9.96094 19.9219Q12.002 19.9219 13.8037 19.1406Q15.6055 18.3594 16.9824 16.9824Q18.3594 15.6055 19.1406 13.8037Q19.9219 12.002 19.9219 9.96094Q19.9219 7.91992 19.1406 6.11816Q18.3594 4.31641 16.9824 2.93945Q15.6055 1.5625 13.7988 0.78125Q11.9922 0 9.95117 0Q7.91016 0 6.1084 0.78125Q4.30664 1.5625 2.93457 2.93945Q1.5625 4.31641 0.78125 6.11816Q0 7.91992 0 9.96094Q0 12.002 0.78125 13.8037Q1.5625 15.6055 2.93945 16.9824Q4.31641 18.3594 6.11816 19.1406Q7.91992 19.9219 9.96094 19.9219ZM9.96094 18.2617Q8.23242 18.2617 6.72852 17.6172Q5.22461 16.9727 4.08691 15.835Q2.94922 14.6973 2.30957 13.1934Q1.66992 11.6895 1.66992 9.96094Q1.66992 8.23242 2.30957 6.72852Q2.94922 5.22461 4.08203 4.08203Q5.21484 2.93945 6.71875 2.2998Q8.22266 1.66016 9.95117 1.66016Q11.6797 1.66016 13.1836 2.2998Q14.6875 2.93945 15.8301 4.08203Q16.9727 5.22461 17.6172 6.72852Q18.2617 8.23242 18.2617 9.96094Q18.2617 11.6895 17.6221 13.1934Q16.9824 14.6973 15.8447 15.835Q14.707 16.9727 13.1982 17.6172Q11.6895 18.2617 9.96094 18.2617ZM7.85156 14.4336Q8.23242 14.4336 8.43262 14.1992Q8.63281 13.9648 8.63281 13.5547L8.63281 11.416L10.5664 11.416Q11.9922 11.416 12.8662 10.5957Q13.7402 9.77539 13.7402 8.42773Q13.7402 7.08008 12.8662 6.25Q11.9922 5.41992 10.5762 5.41992L7.8418 5.41992Q7.4707 5.41992 7.27539 5.66406Q7.08008 5.9082 7.08008 6.29883L7.08008 13.5547Q7.08008 13.9453 7.27539 14.1895Q7.4707 14.4336 7.85156 14.4336ZM8.63281 10.2246L8.63281 6.61133L10.3418 6.61133Q11.2012 6.61133 11.7041 7.09473Q12.207 7.57812 12.207 8.42773Q12.207 9.25781 11.709 9.74121Q11.2109 10.2246 10.3418 10.2246Z" fill="rgba(0,0,0,0.85)"/>
 </g>
</svg>
