<?xml version="1.0" encoding="UTF-8"?>
<!--Generator: Apple Native CoreSVG 175-->
<!DOCTYPE svg
PUBLIC "-//W3C//DTD SVG 1.1//EN"
       "http://www.w3.org/Graphics/SVG/1.1/DTD/svg11.dtd">
<svg version="1.1" xmlns="http://www.w3.org/2000/svg" xmlns:xlink="http://www.w3.org/1999/xlink" width="15.166" height="23.3691">
 <g>
  <rect height="23.3691" opacity="0" width="15.166" x="0" y="0"/>
  <path d="M7.58789 23.3691Q7.67578 23.3691 7.81738 23.1543Q7.95898 22.9395 8.10547 22.5635Q8.25195 22.1875 8.34961 21.6895Q8.44727 21.1914 8.44727 20.6348L8.44727 15.2734L6.71875 15.2734L6.71875 20.6348Q6.71875 21.1914 6.81641 21.6895Q6.91406 22.1875 7.06055 22.5635Q7.20703 22.9395 7.34863 23.1543Q7.49023 23.3691 7.58789 23.3691ZM1.43555 16.0742L13.7305 16.0742Q14.3945 16.0742 14.7803 15.6982Q15.166 15.3223 15.166 14.6973Q15.166 13.623 14.6045 12.5928Q14.043 11.5625 13.0176 10.7373Q11.9922 9.91211 10.6104 9.41895Q9.22852 8.92578 7.58789 8.92578Q5.94727 8.92578 4.56055 9.41895Q3.17383 9.91211 2.15332 10.7373Q1.13281 11.5625 0.566406 12.5928Q0 13.623 0 14.6973Q0 15.3223 0.390625 15.6982Q0.78125 16.0742 1.43555 16.0742ZM1.82617 14.5996Q1.48438 14.5996 1.54297 14.209Q1.62109 13.5547 2.07031 12.876Q2.51953 12.1973 3.30078 11.626Q4.08203 11.0547 5.16113 10.7031Q6.24023 10.3516 7.58789 10.3516Q8.92578 10.3516 10.0049 10.7031Q11.084 11.0547 11.8652 11.626Q12.6465 12.1973 13.0957 12.876Q13.5449 13.5547 13.623 14.209Q13.6816 14.5996 13.3398 14.5996ZM1.24023 1.64062Q1.24023 2.10938 1.61133 2.58789Q1.85547 2.91992 2.30957 3.32031Q2.76367 3.7207 3.33496 4.14551Q3.90625 4.57031 4.52148 4.98047L4.16016 10.1367L5.72266 10.1367L6.08398 4.25781Q6.09375 4.08203 5.97656 4.02344Q5.42969 3.74023 4.95605 3.44727Q4.48242 3.1543 4.12109 2.89551Q3.75977 2.63672 3.54492 2.44629Q3.33008 2.25586 3.30078 2.1875Q3.24219 2.08984 3.28613 2.03613Q3.33008 1.98242 3.4082 1.98242L11.7578 1.98242Q11.8359 1.98242 11.8799 2.03613Q11.9238 2.08984 11.8652 2.1875Q11.8359 2.25586 11.626 2.44629Q11.416 2.63672 11.0547 2.89551Q10.6934 3.1543 10.2148 3.44727Q9.73633 3.74023 9.18945 4.02344Q9.07227 4.08203 9.0918 4.25781L9.44336 10.1367L11.0059 10.1367L10.6445 4.98047Q11.2598 4.57031 11.8359 4.14551Q12.4121 3.7207 12.8613 3.32031Q13.3105 2.91992 13.5547 2.58789Q13.9355 2.10938 13.9355 1.64062Q13.9355 1.19141 13.6182 0.898438Q13.3008 0.605469 12.793 0.605469L2.38281 0.605469Q1.86523 0.605469 1.55273 0.898438Q1.24023 1.19141 1.24023 1.64062Z" fill="rgba(0,0,0,0.85)"/>
 </g>
</svg>
